<?xml version="1.0" standalone="no"?><!DOCTYPE svg PUBLIC "-//W3C//DTD SVG 1.1//EN" "http://www.w3.org/Graphics/SVG/1.1/DTD/svg11.dtd"><svg class="icon" width="200px" height="200.00px" viewBox="0 0 1024 1024" version="1.1" xmlns="http://www.w3.org/2000/svg"><path d="M1024 523.392c0-42.112-3.498667-72.832-11.008-104.704H522.453333v190.037333h287.914667c-5.802667 47.189333-37.12 118.314667-106.794667 166.101334l-0.981333 6.357333 155.093333 117.76 10.752 1.024C967.125333 810.666667 1024 679.253333 1024 523.392z" fill="#4285F4" /><path d="M522.453333 1024c141.034667 0 259.434667-45.525333 345.962667-124.032L703.573333 774.826667c-44.117333 30.165333-103.338667 51.2-181.12 51.2a313.941333 313.941333 0 0 1-297.216-212.778667l-6.144 0.512-161.28 122.325333-2.090666 5.76C141.653333 909.098667 318.101333 1024 522.453333 1024z" fill="#34A853" /><path d="M225.237333 613.248A309.482667 309.482667 0 0 1 207.786667 512c0-35.285333 6.4-69.418667 16.810666-101.248l-0.298666-6.826667L61.013333 279.68l-5.333333 2.474667A504.149333 504.149333 0 0 0 0 512c0 82.474667 20.309333 160.426667 55.722667 229.845333l169.514666-128.597333z" fill="#FBBC05" /><path d="M522.453333 197.973333c98.133333 0 164.266667 41.514667 202.026667 76.245334l147.413333-141.098667C781.312 50.645333 663.466667 0 522.453333 0 318.08 0 141.653333 114.901333 55.68 282.154667l168.96 128.597333c42.368-123.477333 159.573333-212.778667 297.770667-212.778667z" fill="#EB4335" /></svg>